<?xml version="1.0" encoding="UTF-8"?>
<svg version="1.1" xmlns="http://www.w3.org/2000/svg" width="500" height="500">
<path d="M0 0 C2.82410673 6.10927228 5.26040091 12.26774082 7.453125 18.62890625 C7.75820984 19.50401352 8.06329468 20.37912079 8.37762451 21.28074646 C9.33868782 24.04009294 10.294432 26.8012463 11.25 29.5625 C11.90589716 31.44869044 12.56214399 33.33475933 13.21875 35.22070312 C14.81654131 39.81240832 16.40956934 44.40574037 18 49 C18.26930832 48.37958832 18.53861664 47.75917664 18.81608582 47.1199646 C19.17221451 46.30742218 19.5283432 45.49487976 19.89526367 44.65771484 C20.24707199 43.85167816 20.59888031 43.04564148 20.96134949 42.21517944 C23.47691303 36.8501172 27.28430282 33.03589264 32.3125 30 C35.60342038 29.10754701 37.87793534 28.89356836 41.23046875 28.9375 C42.12531982 28.94652344 43.0201709 28.95554688 43.94213867 28.96484375 C44.96078003 28.98224609 44.96078003 28.98224609 46 29 C46.3623877 29.69971924 46.72477539 30.39943848 47.09814453 31.12036133 C48.77255064 34.35170407 50.44876581 37.5821052 52.125 40.8125 C52.97964844 42.46282227 52.97964844 42.46282227 53.8515625 44.14648438 C57.48474216 51.14448384 61.19366816 58.09462324 65 65 C65.33217529 64.26289795 65.66435059 63.5257959 66.0065918 62.76635742 C69.25960175 55.66246159 69.25960175 55.66246159 72.375 52.875 C77.25573265 51.24808912 80.62857142 51.31428571 85.25 53.625 C88.35822397 56.30937525 89.48437494 58.19969385 91 62 C91.14453125 65.48046875 91.14453125 65.48046875 90.8125 69.1875 C90.75425049 69.84242432 90.69600098 70.49734863 90.63598633 71.17211914 C88.64187847 92.08599551 88.64187847 92.08599551 80.5625 99.375 C75.95503871 102.95210075 72.68011213 104.08633882 66.83203125 104.0390625 C65.92815674 104.03342285 65.02428223 104.0277832 64.09301758 104.02197266 C63.40232178 104.01472168 62.71162598 104.0074707 62 104 C55.27078245 91.69962413 48.56197414 79.39055117 42 67 C41.89042969 68.27875 41.78085937 69.5575 41.66796875 70.875 C41.50839407 72.58338776 41.34820503 74.2917182 41.1875 76 C41.08211914 77.25876953 41.08211914 77.25876953 40.97460938 78.54296875 C40.15581648 86.99291143 38.30584246 93.64661483 31.87890625 99.5234375 C26.5900577 103.67974675 21.63389507 104.3387391 15.13671875 104.3984375 C14.43160156 104.26695312 13.72648437 104.13546875 13 104 C10.84225728 100.76338593 9.99780288 97.75573509 9 94.0625 C6.61144544 85.5520118 3.68231068 77.248573 0.6875 68.9375 C0.45699951 68.29765167 0.22649902 67.65780334 -0.01098633 66.99856567 C-1.33423571 63.33003213 -2.66433768 59.66403088 -4 56 C-5.88980526 65.3906033 -6.88735951 74.79285742 -7.76757812 84.32421875 C-9.14188506 97.82431674 -9.14188506 97.82431674 -13.6875 102.875 C-17.72466964 104.83902847 -21.65709772 105.7437785 -25.96875 104.375 C-28.98824342 102.83966436 -30.84454517 101.18946057 -33 98.5625 C-34.00978401 94.96514448 -33.97933713 92.87217565 -33.65551758 89.19824219 C-33.55453766 88.03764282 -33.45355774 86.87704346 -33.34951782 85.68127441 C-32.36492706 75.31113433 -31.27362972 64.95338104 -30.15356445 54.59716797 C-29.84029324 51.69266827 -29.53538352 48.78747008 -29.23754883 45.88134766 C-28.87360998 42.33110973 -28.49486418 38.7827352 -28.1058445 35.23516083 C-27.89231267 33.25499953 -27.69335669 31.27328353 -27.49479675 29.29156494 C-26.6950163 22.15718486 -25.37477884 16.34333894 -22 10 C-21.4121875 8.63875 -21.4121875 8.63875 -20.8125 7.25 C-15.29090879 0.39561092 -8.32359027 -0.63538857 0 0 Z " fill="#AA74D0" transform="translate(217,168)"/>
<path d="M0 0 C1.08263273 3.24789818 0.91940182 4.15921069 0.16015625 7.37890625 C-1.16605915 13.52671081 -1.88557783 19.68898762 -2.5625 25.9375 C-2.69470947 27.13697266 -2.82691895 28.33644531 -2.96313477 29.57226562 C-3.65387829 36.04988562 -4.19939661 42.49108492 -4.4375 49 C-4.77424816 57.65710968 -5.66496906 66.24949743 -6.61257935 74.85742188 C-6.78598233 76.43839575 -6.95570799 78.01977777 -7.12155151 79.6015625 C-7.35854192 81.84520242 -7.61072308 84.08663701 -7.8671875 86.328125 C-8.01269043 87.6368457 -8.15819336 88.94556641 -8.30810547 90.29394531 C-9.18366026 94.98375537 -10.4308445 99.25649388 -13.6875 102.875 C-17.72466964 104.83902847 -21.65709772 105.7437785 -25.96875 104.375 C-28.98824342 102.83966436 -30.84454517 101.18946057 -33 98.5625 C-34.00978401 94.96514448 -33.97933713 92.87217565 -33.65551758 89.19824219 C-33.55453766 88.03764282 -33.45355774 86.87704346 -33.34951782 85.68127441 C-32.36492706 75.31113433 -31.27362972 64.95338104 -30.15356445 54.59716797 C-29.84029324 51.69266827 -29.53538352 48.78747008 -29.23754883 45.88134766 C-28.87360998 42.33110973 -28.49486418 38.7827352 -28.1058445 35.23516083 C-27.89231267 33.25499953 -27.69335669 31.27328353 -27.49479675 29.29156494 C-26.6950163 22.15718486 -25.37477884 16.34333894 -22 10 C-21.4121875 8.63875 -21.4121875 8.63875 -20.8125 7.25 C-15.35318135 0.47291478 -8.28274828 -0.77812875 0 0 Z " fill="#AB74D0" transform="translate(217,168)"/>
<path d="M0 0 C0.97710937 -0.02578125 1.95421875 -0.0515625 2.9609375 -0.078125 C5.625 0.25 5.625 0.25 7.27734375 1.31640625 C9.2551322 4.15410272 10.51773081 7.25012993 11.8125 10.4375 C12.08513672 11.09169922 12.35777344 11.74589844 12.63867188 12.41992188 C13.30739798 14.02721092 13.96709925 15.63824962 14.625 17.25 C17.19407589 13.39638616 18.53044253 9.30318907 20.11328125 4.96484375 C21.625 2.25 21.625 2.25 24.03125 0.890625 C28.15531599 -0.12796961 32.72154048 -0.70172976 36.625 1.25 C36.955 10.49 37.285 19.73 37.625 29.25 C41.72843144 21.12520575 45.71760567 12.99660402 49.4609375 4.69921875 C50.625 2.25 50.625 2.25 51.625 1.25 C53.81139453 1.17741054 56.00000389 1.16626217 58.1875 1.1875 C59.98380859 1.20103516 59.98380859 1.20103516 61.81640625 1.21484375 C62.74324219 1.22644531 63.67007813 1.23804688 64.625 1.25 C66.4250205 5.10031845 68.21349952 8.9558921 70 12.8125 C70.50789063 13.89853516 71.01578125 14.98457031 71.5390625 16.10351562 C73.99854152 21.42699325 76.26455194 26.53775726 77.625 32.25 C75.88395647 33.99104353 73.55135979 33.46311272 71.1875 33.5 C70.19878906 33.52578125 69.21007812 33.5515625 68.19140625 33.578125 C67.34449219 33.46984375 66.49757813 33.3615625 65.625 33.25 C64.965 32.26 64.305 31.27 63.625 30.25 C60.74288698 29.28929566 58.92649956 29.14418117 55.9375 29.1875 C55.12925781 29.19652344 54.32101562 29.20554687 53.48828125 29.21484375 C52.87339844 29.22644531 52.25851562 29.23804688 51.625 29.25 C51.295 30.57 50.965 31.89 50.625 33.25 C42.375 33.25 34.125 33.25 25.625 33.25 C25.13 28.3 25.13 28.3 24.625 23.25 C23.305 26.55 21.985 29.85 20.625 33.25 C12.2265625 33.4453125 12.2265625 33.4453125 9.625 33.25 C8.965 32.59 8.305 31.93 7.625 31.25 C6.965 31.25 6.305 31.25 5.625 31.25 C5.295 31.91 4.965 32.57 4.625 33.25 C0.995 33.25 -2.635 33.25 -6.375 33.25 C-6.39965392 28.71102295 -6.41783789 24.17208457 -6.42993164 19.63305664 C-6.4349714 18.08780234 -6.4418032 16.54255284 -6.45043945 14.99731445 C-6.46252076 12.78074971 -6.46823173 10.56424782 -6.47265625 8.34765625 C-6.47781754 7.6528566 -6.48297882 6.95805695 -6.48829651 6.24220276 C-6.48849277 4.5777067 -6.43689129 2.91334501 -6.375 1.25 C-4.64280072 -0.48219928 -2.35473192 0.03708239 0 0 Z " fill="#010101" transform="translate(237.375,300.75)"/>
<path d="M0 0 C0.66 0 1.32 0 2 0 C4.48196045 6.67028685 6.9155375 13.35686831 9.31811523 20.05615234 C10.13876561 22.32731072 10.96992894 24.59470164 11.81225586 26.85791016 C16.77550149 40.2170918 20.37885942 50.79505452 18 65 C17.78916773 67.0007824 17.61792394 69.00237709 17.45069885 71.00723267 C17.17513455 74.27971079 16.83148048 77.54528397 16.5 80.8125 C16.368309 82.15948757 16.23679818 83.50649276 16.10546875 84.85351562 C15.97785156 86.12517578 15.85023438 87.39683594 15.71875 88.70703125 C15.60466797 89.8463208 15.49058594 90.98561035 15.37304688 92.15942383 C15 95 15 95 14 98 C13.01 98 12.02 98 11 98 C10.75507813 97.09765625 10.51015625 96.1953125 10.2578125 95.265625 C6.50029033 81.82258589 1.72342797 68.74904622 -3.04785156 55.64111328 C-6.919955 44.90049405 -4.77665207 33.25116125 -3.34594727 22.13989258 C-3.05895737 19.90997369 -2.78345314 17.67885282 -2.50976562 15.44726562 C-1.04585116 3.69797623 -1.04585116 3.69797623 0 0 Z " fill="#4044B7" transform="translate(217,171)"/>
<path d="M0 0 C4.96016219 2.48008109 6.96595138 4.89978908 9 10 C9.14453125 13.48046875 9.14453125 13.48046875 8.8125 17.1875 C8.75425049 17.84242432 8.69600098 18.49734863 8.63598633 19.17211914 C6.64187847 40.08599551 6.64187847 40.08599551 -1.4375 47.375 C-6.04496129 50.95210075 -9.31988787 52.08633882 -15.16796875 52.0390625 C-16.07184326 52.03342285 -16.97571777 52.0277832 -17.90698242 52.02197266 C-18.59767822 52.01472168 -19.28837402 52.0074707 -20 52 C-19.91435791 51.29093506 -19.82871582 50.58187012 -19.74047852 49.85131836 C-19.34376787 46.54718213 -18.95244432 43.24244162 -18.5625 39.9375 C-18.42126709 38.74914551 -18.28003418 37.56079102 -18.13452148 36.33642578 C-17.39998594 30.00725693 -16.82151583 23.74031407 -16.5625 17.375 C-16.22446663 11.55552364 -15.33482473 7.81696905 -12 3 C-8.18506325 -0.29940475 -4.9490172 -0.60777404 0 0 Z " fill="#BB61C7" transform="translate(299,220)"/>
<path d="M0 0 C3.76345461 1.25448487 3.92391652 2.21287777 5.671875 5.671875 C6.16848633 6.6402832 6.66509766 7.60869141 7.17675781 8.60644531 C7.69592773 9.64381836 8.21509766 10.68119141 8.75 11.75 C9.82158408 13.86525895 10.89449298 15.97984728 11.96875 18.09375 C12.48695313 19.11597656 13.00515625 20.13820312 13.5390625 21.19140625 C14.74852165 23.51654296 16.00219924 25.78106025 17.34375 28.03125 C17.9728125 29.0934375 18.601875 30.155625 19.25 31.25 C19.79140625 32.12140625 20.3328125 32.9928125 20.890625 33.890625 C23.92678033 42.40041247 21.636782 52.44656812 20.5 61.1875 C20.28537109 62.90163086 20.28537109 62.90163086 20.06640625 64.65039062 C19.71694735 67.43441319 19.36138792 70.21750525 19 73 C18.34 73 17.68 73 17 73 C16.34257812 71.65035156 16.34257812 71.65035156 15.671875 70.2734375 C15.03173569 68.97371901 14.39106093 67.67426417 13.75 66.375 C13.40590088 65.67076904 13.06180176 64.96653809 12.70727539 64.2409668 C10.54802483 59.88826621 8.24841458 55.67120575 5.76171875 51.49609375 C-4.59412323 33.95382415 -4.59412323 33.95382415 -2 22 C-1.56499925 18.06922714 -1.25824793 14.12901057 -0.9375 10.1875 C-0.7615781 8.2432651 -0.58338729 6.29923342 -0.40234375 4.35546875 C-0.32491943 3.51653076 -0.24749512 2.67759277 -0.16772461 1.81323242 C-0.11237549 1.21486572 -0.05702637 0.61649902 0 0 Z " fill="#3F46B3" transform="translate(261,198)"/>
<path d="M0 0 C1.1859375 -0.00386719 2.371875 -0.00773437 3.59375 -0.01171875 C5.45386719 0.00568359 5.45386719 0.00568359 7.3515625 0.0234375 C9.20007813 0.00603516 9.20007813 0.00603516 11.0859375 -0.01171875 C12.27445312 -0.00785156 13.46296875 -0.00398438 14.6875 0 C15.77337402 0.00338379 16.85924805 0.00676758 17.97802734 0.01025391 C21.31987643 0.44288215 23.23878885 1.48167871 25.9765625 3.3984375 C25.6465625 6.0384375 25.3165625 8.6784375 24.9765625 11.3984375 C24.1928125 11.3778125 23.4090625 11.3571875 22.6015625 11.3359375 C19.99541289 11.21159687 19.99541289 11.21159687 17.9765625 12.3984375 C17.98816406 13.02492188 17.99976563 13.65140625 18.01171875 14.296875 C18.02074219 15.11414063 18.02976562 15.93140625 18.0390625 16.7734375 C18.05066406 17.58554687 18.06226563 18.39765625 18.07421875 19.234375 C17.9765625 21.3984375 17.9765625 21.3984375 16.9765625 23.3984375 C18.9565625 23.7284375 20.9365625 24.0584375 22.9765625 24.3984375 C22.9765625 27.3684375 22.9765625 30.3384375 22.9765625 33.3984375 C12.7465625 33.3984375 2.5165625 33.3984375 -8.0234375 33.3984375 C-8.2503125 28.5103125 -8.4771875 23.6221875 -8.7109375 18.5859375 C-8.79045654 17.04703857 -8.86997559 15.50813965 -8.9519043 13.92260742 C-9.00000244 12.71193604 -9.04810059 11.50126465 -9.09765625 10.25390625 C-9.15526123 9.01278076 -9.21286621 7.77165527 -9.2722168 6.49291992 C-9.0234375 3.3984375 -9.0234375 3.3984375 -7.89526367 1.49487305 C-5.21174056 -0.07701978 -3.09898127 0.00967712 0 0 Z M8.9765625 10.3984375 C8.3165625 11.0584375 7.6565625 11.7184375 6.9765625 12.3984375 C9.6165625 12.3984375 12.2565625 12.3984375 14.9765625 12.3984375 C14.3165625 11.7384375 13.6565625 11.0784375 12.9765625 10.3984375 C11.6565625 10.3984375 10.3365625 10.3984375 8.9765625 10.3984375 Z " fill="#010101" transform="translate(359.0234375,300.6015625)"/>
<path d="M0 0 C3.50012435 0.06082365 4.50390913 0.19758565 7.4375 2.3125 C10.39587315 6.23034552 13.09780356 10.24250787 15.75 14.375 C16.08 10.085 16.41 5.795 16.75 1.375 C20.3519172 0.4745207 23.07898129 0.21184361 26.75 0.375 C28.6730889 2.2980889 28.00321838 5.84570485 28.06640625 8.47265625 C28.08718735 9.18151474 28.10796844 9.89037323 28.12937927 10.62071228 C28.19494598 12.89287305 28.2537923 15.16515264 28.3125 17.4375 C28.35567849 18.97462183 28.39929255 20.5117315 28.44335938 22.04882812 C28.55063449 25.8240959 28.65188137 29.5994836 28.75 33.375 C16.75295306 34.15833851 16.75295306 34.15833851 12.94921875 31.1875 C12.45035156 30.259375 11.95148438 29.33125 11.4375 28.375 C10.90511719 27.446875 10.37273437 26.51875 9.82421875 25.5625 C9.46972656 24.840625 9.11523438 24.11875 8.75 23.375 C6.56668311 25.13636355 6.56668311 25.13636355 6.5546875 27.3203125 C6.57789063 28.03960937 6.60109375 28.75890625 6.625 29.5 C6.66625 30.77875 6.7075 32.0575 6.75 33.375 C2.79 33.375 -1.17 33.375 -5.25 33.375 C-5.27465392 28.83602295 -5.29283789 24.29708457 -5.30493164 19.75805664 C-5.3099714 18.21280234 -5.3168032 16.66755284 -5.32543945 15.12231445 C-5.33752076 12.90574971 -5.34323173 10.68924782 -5.34765625 8.47265625 C-5.35281754 7.7778566 -5.35797882 7.08305695 -5.36329651 6.36720276 C-5.36349277 4.7027067 -5.31189129 3.03834501 -5.25 1.375 C-3.69049449 -0.18450551 -2.16122869 0.09303302 0 0 Z " fill="#010102" transform="translate(391.25,300.625)"/>
<path d="M0 0 C1.875 -0.328125 1.875 -0.328125 4 -0.25 C4.70125 -0.23453125 5.4025 -0.2190625 6.125 -0.203125 C8 0 8 0 10 1 C10 4.63 10 8.26 10 12 C13.63 12 17.26 12 21 12 C21 8.37 21 4.74 21 1 C26 0 26 0 32 1 C32 11.56 32 22.12 32 33 C28.37 33 24.74 33 21 33 C20.67 30.03 20.34 27.06 20 24 C15.38492226 22.95785309 15.38492226 22.95785309 11 24 C10.53348793 26.12576782 10.53348793 26.12576782 10.375 28.5625 C10.25125 30.026875 10.1275 31.49125 10 33 C6.37 33 2.74 33 -1 33 C-1.19249739 28.78293756 -1.37118014 24.56558401 -1.53710938 20.34741211 C-1.59549105 18.91268244 -1.65763834 17.47810083 -1.72363281 16.04370117 C-1.8178682 13.98123128 -1.89852573 11.9186072 -1.9765625 9.85546875 C-2.02893066 8.61434326 -2.08129883 7.37321777 -2.13525391 6.09448242 C-2 3 -2 3 0 0 Z " fill="#010101" transform="translate(194,301)"/>
<path d="M0 0 C1.31291016 -0.02513672 1.31291016 -0.02513672 2.65234375 -0.05078125 C5.64200321 0.39984813 6.15609294 1.00314712 8.0625 3.3125 C10.05139918 7.09314024 11.74728709 11.00156866 13.47070312 14.90966797 C14.3120099 16.81139215 15.17085972 18.70450299 16.03125 20.59765625 C16.56234375 21.79261719 17.0934375 22.98757813 17.640625 24.21875 C18.12950195 25.31509766 18.61837891 26.41144531 19.12207031 27.54101562 C20.0625 30.3125 20.0625 30.3125 19.0625 33.3125 C12.09520137 33.75176927 8.5164073 33.90526405 3.0625 29.3125 C0.03358279 28.96162032 -2.90240453 29.0744533 -5.9375 29.3125 C-6.2675 30.6325 -6.5975 31.9525 -6.9375 33.3125 C-10.8975 33.3125 -14.8575 33.3125 -18.9375 33.3125 C-19.5975 31.6625 -20.2575 30.0125 -20.9375 28.3125 C-20.35097656 27.81492187 -19.76445313 27.31734375 -19.16015625 26.8046875 C-16.32324649 23.6237588 -14.97278881 20.35118495 -13.375 16.4375 C-6.510085 0.02867879 -6.510085 0.02867879 0 0 Z M0.0625 14.3125 C-0.5975 15.6325 -1.2575 16.9525 -1.9375 18.3125 C-1.2775 18.3125 -0.6175 18.3125 0.0625 18.3125 C0.3925 16.9925 0.7225 15.6725 1.0625 14.3125 C0.7325 14.3125 0.4025 14.3125 0.0625 14.3125 Z " fill="#010101" transform="translate(100.9375,300.6875)"/>
<path d="M0 0 C1.57465873 1.57465873 1.20054408 3.2179177 1.28125 5.40234375 C1.31863281 6.29244141 1.35601562 7.18253906 1.39453125 8.09960938 C1.42933594 9.03611328 1.46414062 9.97261719 1.5 10.9375 C1.56876352 12.78010759 1.64148918 14.62257289 1.71875 16.46484375 C1.74904297 17.285896 1.77933594 18.10694824 1.81054688 18.95288086 C1.8811079 21.06462166 1.8811079 21.06462166 3 23 C5.52733235 23.65555119 5.52733235 23.65555119 8 24 C8.66 23.01 9.32 22.02 10 21 C10.66 21 11.32 21 12 21 C12.33 14.4 12.66 7.8 13 1 C16.3 1 19.6 1 23 1 C25.33604398 3.33604398 24.28087016 8.93114581 24.3125 12.0625 C24.34150391 12.99255859 24.37050781 13.92261719 24.40039062 14.88085938 C24.45644775 21.01695854 23.74634581 25.98009383 20 31 C15.67394103 34.55732936 11.74038454 35.29296992 6.1875 35.0625 C0.04432531 34.25747838 -6.0771746 32.9400972 -11 29 C-12.19569864 25.92313756 -12.3059727 23.26608067 -12 20 C-11.67 20 -11.34 20 -11 20 C-10.67 13.73 -10.34 7.46 -10 1 C-6.74696956 -0.62651522 -3.60774398 -0.11453156 0 0 Z " fill="#010202" transform="translate(132,301)"/>
<path d="M0 0 C3.12652533 -0.49043535 5.89515734 -0.69169862 9 0 C12.1204069 3.1204069 13.6224199 6.8672597 15 11 C15.51578808 12.39770552 16.03687926 13.79346238 16.5625 15.1875 C16.83191406 15.90292969 17.10132813 16.61835938 17.37890625 17.35546875 C17.58386719 17.89816406 17.78882813 18.44085938 18 19 C18.39832031 17.87980469 18.79664063 16.75960938 19.20703125 15.60546875 C19.74174786 14.13265281 20.27692844 12.66000526 20.8125 11.1875 C21.07353516 10.44951172 21.33457031 9.71152344 21.60351562 8.95117188 C21.99506836 7.88286133 21.99506836 7.88286133 22.39453125 6.79296875 C22.63018799 6.1383667 22.86584473 5.48376465 23.10864258 4.80932617 C24.13412015 2.72775556 25.2039464 1.46437034 27 0 C29.48046875 -0.07421875 29.48046875 -0.07421875 32.1875 0.3125 C33.08855469 0.43238281 33.98960937 0.55226563 34.91796875 0.67578125 C35.60503906 0.78277344 36.29210937 0.88976562 37 1 C37.495 4.465 37.495 4.465 38 8 C37.34 8 36.68 8 36 8 C36 8.99 36 9.98 36 11 C35.34 11 34.68 11 34 11 C33.80664062 11.67546875 33.61328125 12.3509375 33.4140625 13.046875 C33.15367187 13.93890625 32.89328125 14.8309375 32.625 15.75 C32.24214844 17.07257813 32.24214844 17.07257813 31.8515625 18.421875 C31.07652351 20.76832332 30.1310092 22.81094993 29 25 C28.31039038 26.99220557 27.63920943 28.99105606 27 31 C26.34 31 25.68 31 25 31 C25 31.66 25 32.32 25 33 C20.71 33 16.42 33 12 33 C8.34579347 25.88618965 4.76983172 18.73717837 1.5 11.4375 C0.9946875 10.32246094 0.489375 9.20742188 -0.03125 8.05859375 C-1.05721355 4.81936204 -1.00131728 3.20063918 0 0 Z " fill="#010101" transform="translate(312,301)"/>
<path d="M0 0 C0.80078125 1.77734375 0.80078125 1.77734375 1.3125 3.9375 C1.49425781 4.64777344 1.67601562 5.35804688 1.86328125 6.08984375 C1.90839844 6.72019531 1.95351562 7.35054688 2 8 C1.34 8.66 0.68 9.32 0 10 C-2.72869407 9.96712417 -5.2966618 9.43602229 -8 9 C-9.17425599 11.34851197 -9.18464065 12.91668325 -9.28125 15.53515625 C-9.31863281 16.42654297 -9.35601562 17.31792969 -9.39453125 18.23632812 C-9.46498932 20.12434353 -9.53530122 22.0123644 -9.60546875 23.90039062 C-9.64285156 24.79048828 -9.68023437 25.68058594 -9.71875 26.59765625 C-9.76418945 27.82754272 -9.76418945 27.82754272 -9.81054688 29.08227539 C-10 31 -10 31 -11 32 C-12.68608966 32.07205511 -14.37500659 32.08386068 -16.0625 32.0625 C-16.98160156 32.05347656 -17.90070313 32.04445313 -18.84765625 32.03515625 C-19.55792969 32.02355469 -20.26820313 32.01195312 -21 32 C-21.88099735 29.02181366 -22.06705164 26.54707135 -21.87890625 23.453125 C-21.83056641 22.60878906 -21.78222656 21.76445312 -21.73242188 20.89453125 C-21.67634766 20.02183594 -21.62027344 19.14914062 -21.5625 18.25 C-21.51029297 17.36183594 -21.45808594 16.47367187 -21.40429688 15.55859375 C-21.27498267 13.37200804 -21.14003358 11.18592106 -21 9 C-21.99 10.485 -21.99 10.485 -23 12 C-23.33 11.01 -23.66 10.02 -24 9 C-26.64 9 -29.28 9 -32 9 C-32 6.03 -32 3.06 -32 0 C-27.92514175 -0.16780395 -23.8500684 -0.32834318 -19.7746582 -0.48217773 C-18.38851232 -0.53552222 -17.00244111 -0.59084559 -15.61645508 -0.64819336 C-13.62341774 -0.73031421 -11.63006691 -0.80471215 -9.63671875 -0.87890625 C-7.83787231 -0.94960327 -7.83787231 -0.94960327 -6.00268555 -1.02172852 C-3 -1 -3 -1 0 0 Z " fill="#020202" transform="translate(190,302)"/>
<path d="M0 0 C3 3.625 3 3.625 3 7 C2.53680619 8.90516024 2.03276807 10.80061309 1.5 12.6875 C1.2215625 13.68136719 0.943125 14.67523438 0.65625 15.69921875 C0.33140625 16.83810547 0.33140625 16.83810547 0 18 C0.48210937 18.42410156 0.96421875 18.84820312 1.4609375 19.28515625 C3.79826261 21.88943474 3.64126139 24.59198323 4 28 C4.20625 28.78375 4.4125 29.5675 4.625 30.375 C4.74875 30.91125 4.8725 31.4475 5 32 C4.505 32.495 4.505 32.495 4 33 C3.63239269 35.32817964 3.29758419 37.6618385 3 40 C6.465 39.505 6.465 39.505 10 39 C11.20243075 36.04923991 11.20243075 36.04923991 10.75 33 C10.8325 32.01 10.915 31.02 11 30 C14.9 27 14.9 27 17 27 C17.04898438 26.0821875 17.09796875 25.164375 17.1484375 24.21875 C17.5534256 17.57135914 18.08416358 11.38612141 20 5 C20.33 5 20.66 5 21 5 C21.17138759 12.04879056 20.72487203 18.83261726 19.75 25.8125 C19.58564453 27.18438477 19.58564453 27.18438477 19.41796875 28.58398438 C18.69822859 33.79263028 17.94187816 37.21731307 14 41 C10.3104295 43.25473753 7.08996398 43.26873957 2.9296875 42.609375 C-0.93161706 41.39001567 -3.02737137 38.50345307 -5.15234375 35.21875 C-6.29270392 32.23384413 -6.00178868 29.98189303 -5.6875 26.8125 C-5.57535156 25.66136719 -5.46320313 24.51023438 -5.34765625 23.32421875 C-5.23292969 22.22722656 -5.11820313 21.13023437 -5 20 C-4.93683594 19.14019531 -4.87367188 18.28039062 -4.80859375 17.39453125 C-4.39887228 12.32967651 -3.16219614 8.5946668 -1 4 C-0.62691369 2.67723944 -0.26953585 1.34767923 0 0 Z " fill="#EE23AD" transform="translate(189,230)"/>
<path d="M0 0 C0.66 0.99 1.32 1.98 2 3 C2.99 3.33 3.98 3.66 5 4 C5.22222755 12.18641024 4.55515163 20.07423947 3.5 28.1875 C3.28537109 29.90163086 3.28537109 29.90163086 3.06640625 31.65039062 C2.71694735 34.43441319 2.36138792 37.21750525 2 40 C1.34 40 0.68 40 0 40 C-2.66666667 34.66666667 -5.33333333 29.33333333 -8 24 C-8.38687988 23.33581055 -8.77375977 22.67162109 -9.17236328 21.98730469 C-10.53166669 18.7233726 -9.14674999 16.19882892 -8 13 C-7.67 12.67 -7.34 12.34 -7 12 C-6.855625 10.906875 -6.71125 9.81375 -6.5625 8.6875 C-6.08526936 5.55898801 -5.59539315 3.65898859 -4 1 C-3.01 1.33 -2.02 1.66 -1 2 C-0.67 1.34 -0.34 0.68 0 0 Z " fill="#4541C0" transform="translate(278,231)"/>
<path d="M0 0 C0.33 0 0.66 0 1 0 C0.70976299 11.82715829 0.06706473 21.48075462 -8.37890625 30.55859375 C-13.93216826 35.49631347 -20.00833315 35.37982898 -27 35 C-26.69262339 32.52009745 -26.37935917 30.04119265 -26.0625 27.5625 C-25.97548828 26.85544922 -25.88847656 26.14839844 -25.79882812 25.41992188 C-25.11328125 20.11328125 -25.11328125 20.11328125 -24 19 C-20.25316469 18.87510549 -16.92042826 18.81173058 -13.25 19.5625 C-10.77399031 20.04394633 -9.39805371 19.63948099 -7 19 C-6.01 19.33 -5.02 19.66 -4 20 C-3.87882812 19.39414062 -3.75765625 18.78828125 -3.6328125 18.1640625 C-2.421875 12.109375 -1.2109375 6.0546875 0 0 Z " fill="#80A9E8" transform="translate(306,237)"/>
<path d="M0 0 C0 2.83967231 -0.40267181 5.23735711 -1 8 C1.31 8.33 3.62 8.66 6 9 C6.33 10.65 6.66 12.3 7 14 C9.44480079 13.81171228 9.44480079 13.81171228 12 13 C13.7941758 10.43689172 14 9.16880694 14 6 C15.65 6 17.3 6 19 6 C19.33 6.66 19.66 7.32 20 8 C16.5773743 13.75001117 12.46381684 17.94043323 6.6875 21.375 C2.48188984 22.35304887 -1.70312437 22.15018206 -6 22 C-6.33 21.01 -6.66 20.02 -7 19 C-6.34 19 -5.68 19 -5 19 C-4.67 14.71 -4.34 10.42 -4 6 C-3.34 6 -2.68 6 -2 6 C-1.855625 5.195625 -1.71125 4.39125 -1.5625 3.5625 C-1 1 -1 1 0 0 Z " fill="#E823AE" transform="translate(236,250)"/>
<path d="M0 0 C-0.99 0.495 -0.99 0.495 -2 1 C-1.97679687 1.66902344 -1.95359375 2.33804688 -1.9296875 3.02734375 C-1.80884158 9.4580728 -2.16030508 15.74088934 -2.875 22.125 C-2.99270752 23.24442993 -2.99270752 23.24442993 -3.11279297 24.38647461 C-3.75681333 29.75681333 -3.75681333 29.75681333 -6 32 C-6.79953138 28.71303767 -7.09658936 27.28976808 -6 24 C-5.77115888 21.51665011 -5.58301314 19.05053611 -5.4375 16.5625 C-5.39431641 15.89412109 -5.35113281 15.22574219 -5.30664062 14.53710938 C-5.10750648 11.34780217 -5 8.19728438 -5 5 C-5.99 5.66 -6.98 6.32 -8 7 C-9.33568021 6.67619874 -10.66923011 6.34342449 -12 6 C-12.66 6.66 -13.32 7.32 -14 8 C-13.67 8.99 -13.34 9.98 -13 11 C-14.27875 10.95875 -15.5575 10.9175 -16.875 10.875 C-19.01871492 10.75787127 -19.01871492 10.75787127 -21 11 C-23.61020066 13.61020066 -23.63751674 15.37516738 -24 19 C-23.67619874 20.33568021 -23.34342449 21.66923011 -23 23 C-23.25 25.625 -23.25 25.625 -24 28 C-24.99 28.66 -25.98 29.32 -27 30 C-27.41777518 20.57684874 -26.8232948 14.28361512 -20.75 6.75 C-14.64985737 0.17865638 -8.56014171 -0.46503788 0 0 Z " fill="#75B9F4" transform="translate(263,197)"/>
<path d="M0 0 C1.08089483 3.24268448 0.92423317 4.11697816 0.16015625 7.32421875 C-1.23433942 13.7721513 -1.8864975 20.25634878 -2.5625 26.8125 C-2.81179451 29.1942214 -3.06302111 31.57574156 -3.31640625 33.95703125 C-3.42412354 34.99835205 -3.53184082 36.03967285 -3.64282227 37.11254883 C-3.97284986 39.78051624 -4.43400975 42.37311626 -5 45 C-7.20735899 40.99916183 -7.05623119 38.07617657 -6.5625 33.625 C-6.48128906 32.87476563 -6.40007812 32.12453125 -6.31640625 31.3515625 C-6 29 -6 29 -5.51367188 26.6706543 C-5.01522787 24.0791719 -4.70657858 21.5448206 -4.46484375 18.91796875 C-4.37783203 17.98662109 -4.29082031 17.05527344 -4.20117188 16.09570312 C-4.11416016 15.13599609 -4.02714844 14.17628906 -3.9375 13.1875 C-3.84662109 12.20845703 -3.75574219 11.22941406 -3.66210938 10.22070312 C-3.43904995 7.81400929 -3.21842428 5.40711818 -3 3 C-5.49092811 1.75453595 -6.41080733 2.2232422 -9 3 C-9.0928125 3.928125 -9.0928125 3.928125 -9.1875 4.875 C-10 7 -10 7 -12.5625 8.25 C-13.366875 8.4975 -14.17125 8.745 -15 9 C-15.33 8.34 -15.66 7.68 -16 7 C-16.70074844 10.153368 -17 12.72724974 -17 16 C-18.32 16 -19.64 16 -21 16 C-23.5654594 18.5654594 -23.54046087 20.47686668 -24 24 C-25.40519477 21.73322596 -26.07975321 20.53493008 -25.6796875 17.8515625 C-22.87520459 10.09158551 -20.04378171 4.81689463 -12.52734375 0.90234375 C-8.35906352 -0.58586758 -4.35875329 -0.40948622 0 0 Z " fill="#7AA9EB" transform="translate(217,168)"/>
<path d="M0 0 C3 3.625 3 3.625 3 7 C2.53680619 8.90516024 2.03276807 10.80061309 1.5 12.6875 C1.2215625 13.68136719 0.943125 14.67523438 0.65625 15.69921875 C0.33140625 16.83810547 0.33140625 16.83810547 0 18 C0.48726562 18.4434375 0.97453125 18.886875 1.4765625 19.34375 C3 21 3 21 3.375 23.5 C3 26 3 26 1.6875 27.8125 C0 29 0 29 -3 29 C-3.495 31.475 -3.495 31.475 -4 34 C-3.34 34 -2.68 34 -2 34 C-1.67 35.65 -1.34 37.3 -1 39 C-1.66 39 -2.32 39 -3 39 C-7.28101921 33.0065731 -5.82289176 26.99457996 -5 20 C-4.93554688 19.14277344 -4.87109375 18.28554687 -4.8046875 17.40234375 C-4.40470347 12.33298089 -3.16330806 8.59702964 -1 4 C-0.62691369 2.67723944 -0.26953585 1.34767923 0 0 Z " fill="#DC38B8" transform="translate(189,230)"/>
<path d="M0 0 C0.66 0 1.32 0 2 0 C4.56235522 7.04349737 6.5003731 13.50559651 7 21 C5.02 21 3.04 21 1 21 C1 20.34 1 19.68 1 19 C0.34 19 -0.32 19 -1 19 C-1.04898438 19.92683594 -1.09796875 20.85367188 -1.1484375 21.80859375 C-1.22320312 23.00613281 -1.29796875 24.20367187 -1.375 25.4375 C-1.47941406 27.22994141 -1.47941406 27.22994141 -1.5859375 29.05859375 C-1.79089844 30.51458984 -1.79089844 30.51458984 -2 32 C-2.99 32.495 -2.99 32.495 -4 33 C-3.71802199 29.37417983 -3.42260548 25.74956825 -3.125 22.125 C-3.04636719 21.11179688 -2.96773437 20.09859375 -2.88671875 19.0546875 C-2.34753435 12.58447467 -1.4311022 6.33372472 0 0 Z " fill="#4A3FCE" transform="translate(217,171)"/>
<path d="M0 0 C3 1 3 1 4.6875 3.6875 C6.03558623 7.08981286 6.25833766 9.38327271 6 13 C6.66 13 7.32 13 8 13 C7.8125 15.3125 7.8125 15.3125 7 18 C5.34467377 19.01866229 3.67739862 20.01810813 2 21 C0.65310085 23.57099402 0.65310085 23.57099402 0 26 C-1.99145026 22.71444233 -2.1545144 20.58758203 -1.7578125 16.796875 C-1.66113281 15.8171875 -1.56445312 14.8375 -1.46484375 13.828125 C-1.35269531 12.81234375 -1.24054688 11.7965625 -1.125 10.75 C-0.96837891 9.203125 -0.96837891 9.203125 -0.80859375 7.625 C-0.54958962 5.08205034 -0.27969737 2.54074298 0 0 Z " fill="#493CD2" transform="translate(261,198)"/>
<path d="M0 0 C1.65 0 3.3 0 5 0 C5.33 0.66 5.66 1.32 6 2 C2.90986619 7.19142481 -1.06815967 12.62230792 -6.984375 14.6953125 C-10.08030678 15.16330219 -12.93863992 14.52985078 -16 14 C-16 12.68 -16 11.36 -16 10 C-12.66666667 10 -9.33333333 10 -6 10 C-2.75961117 7.73584722 -2.75961117 7.73584722 0 5 C0.50379029 2.28694223 0.50379029 2.28694223 0 0 Z " fill="#D93EA9" transform="translate(250,256)"/>
<path d="M0 0 C3.375 1.5 3.375 1.5 6 4 C6.80310788 6.76860874 6.90268981 9.0806943 7 12 C5.68 11.01 4.36 10.02 3 9 C3.33 8.34 3.66 7.68 4 7 C2.30143878 4.94384695 1.076023 4.02923961 -1.4375 3.0625 C-4.15184542 2.70583171 -4.15184542 2.70583171 -6.125 4.875 C-6.74375 5.57625 -7.3625 6.2775 -8 7 C-8.99 7.33 -9.98 7.66 -11 8 C-11.33 9.65 -11.66 11.3 -12 13 C-12.66 13 -13.32 13 -14 13 C-14.3125 9.8125 -14.3125 9.8125 -14 6 C-9.62039058 0.69836754 -6.83684032 -0.56973669 0 0 Z " fill="#DC4AAE" transform="translate(299,220)"/>
<path d="M0 0 C0.66 0.33 1.32 0.66 2 1 C2.25515919 8.52719602 1.28297723 15.58851545 0 23 C-0.99 23 -1.98 23 -3 23 C-3.99 19.37 -4.98 15.74 -6 12 C-4.35 11.34 -2.7 10.68 -1 10 C-1.020625 8.906875 -1.04125 7.81375 -1.0625 6.6875 C-1 3 -1 3 0 0 Z " fill="#6131DA" transform="translate(231,246)"/>
<path d="M0 0 C0 0.33 0 0.66 0 1 C-0.79664063 1.09796875 -1.59328125 1.1959375 -2.4140625 1.296875 C-10.24234351 2.40159592 -15.34233002 3.97216121 -20.8125 9.875 C-23.11557475 13.16510679 -23.82724746 15.02669151 -24 19 C-23.67619874 20.33568021 -23.34342449 21.66923011 -23 23 C-23.25 25.625 -23.25 25.625 -24 28 C-24.99 28.66 -25.98 29.32 -27 30 C-27.41777518 20.57684874 -26.8232948 14.28361512 -20.75 6.75 C-14.64985737 0.17865638 -8.56014171 -0.46503788 0 0 Z " fill="#8AB4DD" transform="translate(263,197)"/>
<path d="M0 0 C0.33 0 0.66 0 1 0 C0.69815319 12.30025754 -0.24635335 21.2037353 -8.6328125 30.78515625 C-10 32 -10 32 -12 32 C-11 29 -11 29 -8.9375 27.5 C-8.298125 27.005 -7.65875 26.51 -7 26 C-7 25.01 -7 24.02 -7 23 C-8.98 22.67 -10.96 22.34 -13 22 C-11.3125 20.4375 -11.3125 20.4375 -9 19 C-6.35546875 19.41015625 -6.35546875 19.41015625 -4 20 C-3.87882812 19.39414062 -3.75765625 18.78828125 -3.6328125 18.1640625 C-2.421875 12.109375 -1.2109375 6.0546875 0 0 Z " fill="#8AAADE" transform="translate(306,237)"/>
<path d="M0 0 C1.55078125 1.14453125 1.55078125 1.14453125 3 3 C2.85546875 5.69921875 2.85546875 5.69921875 2.1875 8.6875 C1.97480469 9.68136719 1.76210937 10.67523438 1.54296875 11.69921875 C1.36378906 12.45847656 1.18460938 13.21773438 1 14 C1.66 14.33 2.32 14.66 3 15 C-0.23490776 14.44225728 -1.97855006 13.62788492 -4 11 C-4 10.01 -4 9.02 -4 8 C-4.66 8 -5.32 8 -6 8 C-5.8125 5.6875 -5.8125 5.6875 -5 3 C-2.4375 1.1875 -2.4375 1.1875 0 0 Z " fill="#ED26AC" transform="translate(191,256)"/>
<path d="M0 0 C0.66 0 1.32 0 2 0 C2.33951619 1.56116819 2.67132544 3.12401338 3 4.6875 C3.185625 5.55761719 3.37125 6.42773438 3.5625 7.32421875 C3.98972047 9.93712964 4.07616201 12.35813038 4 15 C2.02 15.99 2.02 15.99 0 17 C-2.50014115 13.25904806 -1.90042304 10.55790579 -1.125 6.25 C-0.92132813 5.07953125 -0.71765625 3.9090625 -0.5078125 2.703125 C-0.34023437 1.81109375 -0.17265625 0.9190625 0 0 Z " fill="#4E34E2" transform="translate(217,171)"/>
<path d="M0 0 C3 3.625 3 3.625 3 7 C1.97813225 11.27326516 1.05618215 15.00417112 -2.1875 18.0625 C-3.0846875 18.5265625 -3.0846875 18.5265625 -4 19 C-4.31864446 12.94575531 -3.61641333 9.44213973 -1 4 C-0.62691369 2.67723944 -0.26953585 1.34767923 0 0 Z " fill="#C44EB4" transform="translate(189,230)"/>
<path d="M0 0 C3.375 -0.125 3.375 -0.125 7 0 C7.66 0.66 8.32 1.32 9 2 C8.01 2.495 8.01 2.495 7 3 C6.67 3.99 6.34 4.98 6 6 C2.34742296 7.62336757 -0.19362399 8.46399077 -4 7 C-4 6.01 -4 5.02 -4 4 C-3.34 4 -2.68 4 -2 4 C-1.34 2.68 -0.68 1.36 0 0 Z " fill="#7BB5EF" transform="translate(288,264)"/>
<path d="M0 0 C1.16660156 0.04833984 2.33320313 0.09667969 3.53515625 0.14648438 C5.37013672 0.2305957 5.37013672 0.2305957 7.2421875 0.31640625 C8.47324219 0.36861328 9.70429688 0.42082031 10.97265625 0.47460938 C14.02107338 0.60458065 17.069187 0.73955644 20.1171875 0.87890625 C20.4471875 1.53890625 20.7771875 2.19890625 21.1171875 2.87890625 C19.25126953 2.86150391 19.25126953 2.86150391 17.34765625 2.84375 C8.55074321 2.78719526 -0.13697599 2.7783066 -8.8828125 3.87890625 C-8.5528125 2.88890625 -8.2228125 1.89890625 -7.8828125 0.87890625 C-5.13550007 -0.49474996 -3.06614186 -0.13395765 0 0 Z " fill="#070A08" transform="translate(358.8828125,301.12109375)"/>
<path d="M0 0 C0.33 0 0.66 0 1 0 C1.33 5.61 1.66 11.22 2 17 C-0.13799448 14.1493407 -1.98777034 11.50066978 -3.75 8.4375 C-4.19859375 7.67308594 -4.6471875 6.90867188 -5.109375 6.12109375 C-6 4 -6 4 -5 1 C-3.68 1 -2.36 1 -1 1 C-0.67 0.67 -0.34 0.34 0 0 Z " fill="#3E49A0" transform="translate(265,231)"/>
<path d="M0 0 C3.625 0.375 3.625 0.375 7 1 C8.125 4.75 8.125 4.75 7 7 C4.03 7 1.06 7 -2 7 C-2.125 4.625 -2.125 4.625 -2 2 C-1.34 1.34 -0.68 0.68 0 0 Z " fill="#E62BB0" transform="translate(235,258)"/>
<path d="M0 0 C0.33 0 0.66 0 1 0 C1.19218193 7.15052656 0.66309299 13.99049153 -0.375 21.0625 C-0.50132812 22.01060547 -0.62765625 22.95871094 -0.7578125 23.93554688 C-0.88671875 24.83466797 -1.015625 25.73378906 -1.1484375 26.66015625 C-1.26364746 27.47105713 -1.37885742 28.28195801 -1.49755859 29.11743164 C-1.66336426 29.7386792 -1.82916992 30.35992676 -2 31 C-2.66 31.33 -3.32 31.66 -4 32 C-3.84402344 31.01902344 -3.68804687 30.03804688 -3.52734375 29.02734375 C-2.83250665 24.17081096 -2.66416713 19.30255302 -2.48242188 14.40429688 C-2.2398792 9.36581593 -1.35398413 4.8622831 0 0 Z " fill="#C156AB" transform="translate(209,235)"/>
<path d="M0 0 C0.99 0.33 1.98 0.66 3 1 C4.0161692 5.62921525 3.83796731 9.34462607 3 14 C2.34 14 1.68 14 1 14 C0.49242138 12.58603098 -0.00574925 11.16868271 -0.5 9.75 C-0.91765625 8.56664062 -0.91765625 8.56664062 -1.34375 7.359375 C-2 5 -2 5 -2 1 C-1.34 0.67 -0.68 0.34 0 0 Z " fill="#523EE1" transform="translate(277,257)"/>
<path d="M0 0 C2 2 2 2 2.05932617 3.98364258 C1.97142822 4.77923584 1.88353027 5.5748291 1.79296875 6.39453125 C1.70080078 7.26787109 1.60863281 8.14121094 1.51367188 9.04101562 C1.3522168 10.41290039 1.3522168 10.41290039 1.1875 11.8125 C1.09146484 12.71548828 0.99542969 13.61847656 0.89648438 14.54882812 C0.43637059 18.75161246 -0.13042752 22.85976927 -1 27 C-4.50377669 20.64940474 -2.481297 12.8509986 -1 6 C-0.66055205 4.00102872 -0.32578384 2.00124361 0 0 Z " fill="#9388E1" transform="translate(213,186)"/>
<path d="M0 0 C0.99 0.33 1.98 0.66 3 1 C3.6875 3.0625 3.6875 3.0625 4 5 C3.34 5 2.68 5 2 5 C2.061875 6.485 2.061875 6.485 2.125 8 C2.1423348 12.23835866 1.14191162 15.93193985 0 20 C0.66 20.33 1.32 20.66 2 21 C1.01 23.475 1.01 23.475 0 26 C-1.99145026 22.71444233 -2.1545144 20.58758203 -1.7578125 16.796875 C-1.66113281 15.8171875 -1.56445312 14.8375 -1.46484375 13.828125 C-1.35269531 12.81234375 -1.24054688 11.7965625 -1.125 10.75 C-0.96837891 9.203125 -0.96837891 9.203125 -0.80859375 7.625 C-0.54958962 5.08205034 -0.27969737 2.54074298 0 0 Z " fill="#4B49D2" transform="translate(261,198)"/>
<path d="M0 0 C2.35716404 2.15454249 3.78966144 4.19719874 5.1875 7.0625 C5.53167969 7.75472656 5.87585938 8.44695312 6.23046875 9.16015625 C7 11 7 11 7 13 C6.38125 12.649375 5.7625 12.29875 5.125 11.9375 C4.42375 11.628125 3.7225 11.31875 3 11 C2.01 11.495 2.01 11.495 1 12 C1 11.34 1 10.68 1 10 C0.01 9.67 -0.98 9.34 -2 9 C-1.67 8.443125 -1.34 7.88625 -1 7.3125 C0.1309601 4.69715478 0.15662974 2.8193354 0 0 Z " fill="#3D499E" transform="translate(275,222)"/>
<path d="M0 0 C0.99 0.33 1.98 0.66 3 1 C3.33 2.98 3.66 4.96 4 7 C2.68 7 1.36 7 0 7 C-2.5654594 9.5654594 -2.54046087 11.47686668 -3 15 C-4.48418893 12.64465669 -5.08599522 11.503932 -4.609375 8.7109375 C-4.18398437 7.55464844 -4.18398437 7.55464844 -3.75 6.375 C-3.47671875 5.59898437 -3.2034375 4.82296875 -2.921875 4.0234375 C-2 2 -2 2 0 0 Z " fill="#7BB2EC" transform="translate(196,177)"/>
<path d="M0 0 C0.33 0 0.66 0 1 0 C0.58994384 8.19033227 0.0946225 16.04043449 -2 24 C-4.37440821 20.3586501 -3.9795044 17.88215032 -3.25 13.6875 C-3.05148437 12.5428125 -2.85296875 11.398125 -2.6484375 10.21875 C-1.94462288 6.72511596 -1.10258533 3.38651209 0 0 Z " fill="#8A8EE9" transform="translate(260,205)"/>
<path d="M0 0 C3 5.8 3 5.8 3 9 C3.66 9.33 4.32 9.66 5 10 C4.67 11.32 4.34 12.64 4 14 C2.35 14 0.7 14 -1 14 C-1.027193 12.41676312 -1.04648306 10.83338938 -1.0625 9.25 C-1.07410156 8.36828125 -1.08570313 7.4865625 -1.09765625 6.578125 C-1.00826198 4.2181162 -0.66912821 2.25501476 0 0 Z " fill="#9E79D8" transform="translate(283,242)"/>
<path d="M0 0 C2 2 2 2 2.07519531 4.01538086 C1.99366211 4.82370361 1.91212891 5.63202637 1.828125 6.46484375 C1.74046875 7.34720703 1.6528125 8.22957031 1.5625 9.13867188 C1.459375 10.06228516 1.35625 10.98589844 1.25 11.9375 C1.16234375 12.85724609 1.0746875 13.77699219 0.984375 14.72460938 C0.26140422 21.60789367 0.26140422 21.60789367 -2 25 C-2.31274919 16.48627215 -1.37292913 8.3969326 0 0 Z " fill="#B263B1" transform="translate(257,232)"/>
<path d="M0 0 C1.91015625 0.23046875 1.91015625 0.23046875 3.91015625 2.23046875 C1.93015625 2.56046875 -0.04984375 2.89046875 -2.08984375 3.23046875 C-2.41984375 4.22046875 -2.74984375 5.21046875 -3.08984375 6.23046875 C-3.74984375 6.23046875 -4.40984375 6.23046875 -5.08984375 6.23046875 C-5.74984375 6.89046875 -6.40984375 7.55046875 -7.08984375 8.23046875 C-7.13226098 5.897521 -7.13077312 3.56344308 -7.08984375 1.23046875 C-5.19495423 -0.66442077 -2.51845229 0.05027763 0 0 Z " fill="#9094E5" transform="translate(288.08984375,255.76953125)"/>
<path d="M0 0 C1.32 0 2.64 0 4 0 C5.16063604 4.25566547 4.76173392 7.6835078 4 12 C3.34 12 2.68 12 2 12 C1.01 8.37 0.02 4.74 -1 1 C-0.67 0.67 -0.34 0.34 0 0 Z " fill="#573EE1" transform="translate(226,257)"/>
<path d="M0 0 C0.66 0.33 1.32 0.66 2 1 C2.89189439 5.21622804 3.4149078 8.87318559 2 13 C1.01 13.66 0.02 14.32 -1 15 C-1.02703381 13.06257659 -1.04641125 11.12504521 -1.0625 9.1875 C-1.07410156 8.10855469 -1.08570313 7.02960938 -1.09765625 5.91796875 C-1 3 -1 3 0 0 Z " fill="#7F85D3" transform="translate(237,212)"/>
<path d="M0 0 C0.33 0 0.66 0 1 0 C1.0543251 3.02107902 1.09382927 6.04116528 1.125 9.0625 C1.14175781 9.91005859 1.15851563 10.75761719 1.17578125 11.63085938 C1.21596135 16.83418201 0.69745815 21.07469821 -1 26 C-1.33 26 -1.66 26 -2 26 C-2.38064163 17.20294908 -1.20731692 8.68836995 0 0 Z " fill="#9793CC" transform="translate(191,188)"/>
<path d="M0 0 C0.33 0 0.66 0 1 0 C1 1.65 1 3.3 1 5 C1.99 5.33 2.98 5.66 4 6 C4 7.98 4 9.96 4 12 C3.01 12 2.02 12 1 12 C0.34 12.66 -0.32 13.32 -1 14 C-1.02705729 12.22925083 -1.04642195 10.45838289 -1.0625 8.6875 C-1.07410156 7.70136719 -1.08570313 6.71523437 -1.09765625 5.69921875 C-1 3 -1 3 0 0 Z " fill="#BD49B5" transform="translate(284,228)"/>
<path d="M0 0 C0.90492187 0.02320313 1.80984375 0.04640625 2.7421875 0.0703125 C4.10730469 0.09738281 4.10730469 0.09738281 5.5 0.125 C6.19867188 0.14820313 6.89734375 0.17140625 7.6171875 0.1953125 C7.9471875 1.1853125 8.2771875 2.1753125 8.6171875 3.1953125 C7.47830078 3.26878906 7.47830078 3.26878906 6.31640625 3.34375 C5.32253906 3.41851562 4.32867187 3.49328125 3.3046875 3.5703125 C1.82548828 3.67472656 1.82548828 3.67472656 0.31640625 3.78125 C-2.59809683 4.03396722 -2.59809683 4.03396722 -5.3828125 6.1953125 C-4.65745348 2.56851739 -4.09107647 0.33533414 0 0 Z " fill="#090A0A" transform="translate(98.3828125,300.8046875)"/>
<path d="M0 0 C0.33 0 0.66 0 1 0 C0.88525534 2.54250021 0.7585303 5.08347338 0.625 7.625 C0.5940625 8.33785156 0.563125 9.05070313 0.53125 9.78515625 C0.28979845 14.17152608 -0.39342731 17.8594834 -2 22 C-4.21135589 14.90038373 -2.29481382 6.88444146 0 0 Z " fill="#9D8CC2" transform="translate(306,237)"/>
<path d="M0 0 C2.0625 0.4375 2.0625 0.4375 4 1 C1.63707344 3.52588702 0.33537489 4.88820837 -3 6 C-3.33 7.65 -3.66 9.3 -4 11 C-4.66 11 -5.32 11 -6 11 C-6.3125 8.8125 -6.3125 8.8125 -6 6 C-3.5625 3.25 -3.5625 3.25 -1 1 C-0.67 0.67 -0.34 0.34 0 0 Z " fill="#E829AA" transform="translate(291,222)"/>
<path d="M0 0 C0.99 0.33 1.98 0.66 3 1 C3.33 5.62 3.66 10.24 4 15 C1.83900627 12.83900627 1.28436284 11.4789582 0.3125 8.625 C0.04050781 7.85414063 -0.23148438 7.08328125 -0.51171875 6.2890625 C-1.04278009 3.79944692 -0.81115526 2.38446982 0 0 Z " fill="#444E9B" transform="translate(213,217)"/>
<path d="M0 0 C0.969375 0.185625 1.93875 0.37125 2.9375 0.5625 C7.38413206 1.21856047 11.58084983 0.65134866 16 0 C13.32909585 3.06905135 11.09378725 3.68611266 7.0078125 4.078125 C4.04970491 3.96302354 2.25983181 2.83611334 0 1 C0 0.67 0 0.34 0 0 Z " fill="#E13BA7" transform="translate(188,269)"/>
<path d="M0 0 C0.66 0.33 1.32 0.66 2 1 C3.19150921 5.36886712 3.021829 7.95634201 1 12 C0.01 11.67 -0.98 11.34 -2 11 C-1.835 10.278125 -1.67 9.55625 -1.5 8.8125 C-0.91977639 6.02484197 -0.91977639 6.02484197 -1 3.25 C-1 1 -1 1 0 0 Z " fill="#4C37E6" transform="translate(263,202)"/>
<path d="M0 0 C0.66 0 1.32 0 2 0 C3.09824224 3.95367207 2.88032243 5.44827985 1 9 C0.61250787 11.32495277 0.27017161 13.65851268 0 16 C-2.56220131 12.15669804 -1.91906612 10.76809323 -1.125 6.3125 C-0.92132813 5.13300781 -0.71765625 3.95351562 -0.5078125 2.73828125 C-0.34023437 1.83464844 -0.17265625 0.93101562 0 0 Z " fill="#5147DE" transform="translate(217,171)"/>
<path d="M0 0 C2.64 0 5.28 0 8 0 C7.34 1.32 6.68 2.64 6 4 C4.02 4 2.04 4 0 4 C0 2.68 0 1.36 0 0 Z " fill="#F61AA7" transform="translate(234,266)"/>
<path d="M0 0 C0.66 0.33 1.32 0.66 2 1 C1.8125 2.8125 1.8125 2.8125 1 5 C-1.375 6.8125 -1.375 6.8125 -4 8 C-4.99 7.67 -5.98 7.34 -7 7 C-4.66666667 4.66666667 -2.33333333 2.33333333 0 0 Z " fill="#DB30A3" transform="translate(247,263)"/>
<path d="M0 0 C0.66 0.33 1.32 0.66 2 1 C1.67 4.96 1.34 8.92 1 13 C1.66 13 2.32 13 3 13 C3.33 14.65 3.66 16.3 4 18 C3.34 18 2.68 18 2 18 C-2.03356644 12.19166432 -0.908709 6.76605015 0 0 Z " fill="#D14EA2" transform="translate(184,251)"/>
<path d="M0 0 C0 3.41761705 -0.75938546 5.82954062 -2 9 C-2.99 9.495 -2.99 9.495 -4 10 C-4 9.34 -4 8.68 -4 8 C-4.66 8 -5.32 8 -6 8 C-5.8125 5.6875 -5.8125 5.6875 -5 3 C-2.4375 1.1875 -2.4375 1.1875 0 0 Z " fill="#E928AF" transform="translate(191,256)"/>
<path d="M0 0 C0.91007812 0.00902344 1.82015625 0.01804687 2.7578125 0.02734375 C3.45648438 0.03894531 4.15515625 0.05054688 4.875 0.0625 C5.205 1.0525 5.535 2.0425 5.875 3.0625 C1.585 3.0625 -2.705 3.0625 -7.125 3.0625 C-7.125 2.4025 -7.125 1.7425 -7.125 1.0625 C-4.60024538 -0.19987731 -2.81299534 -0.03606404 0 0 Z " fill="#070908" transform="translate(267.125,300.9375)"/>
<path d="M0 0 C2 1.25 2 1.25 4 3 C4 4.32 4 5.64 4 7 C5.32 7.33 6.64 7.66 8 8 C5.03 8 2.06 8 -1 8 C-0.67 5.36 -0.34 2.72 0 0 Z " fill="#77A3EC" transform="translate(280,264)"/>
<path d="M0 0 C3 3.625 3 3.625 3 7 C1.5 9.1875 1.5 9.1875 0 11 C-2 8 -2 8 -1.6875 6.0625 C-1.460625 5.381875 -1.23375 4.70125 -1 4 C-0.814375 3.2575 -0.62875 2.515 -0.4375 1.75 C-0.293125 1.1725 -0.14875 0.595 0 0 Z " fill="#C358C4" transform="translate(189,230)"/>
<path d="M0 0 C0.33 0 0.66 0 1 0 C1.20413361 5.73842251 1.27141454 10.60539047 -1 16 C-1.33 16 -1.66 16 -2 16 C-1.85975781 13.52039864 -1.7130815 11.04147598 -1.5625 8.5625 C-1.52318359 7.85544922 -1.48386719 7.14839844 -1.44335938 6.41992188 C-1.11328125 1.11328125 -1.11328125 1.11328125 0 0 Z " fill="#AF6DB6" transform="translate(188,224)"/>
<path d="M0 0 C2 2 2 2 2.046875 4.78515625 C1.94890625 5.86667969 1.8509375 6.94820312 1.75 8.0625 C1.66234375 9.14660156 1.5746875 10.23070312 1.484375 11.34765625 C1.32453125 12.22292969 1.1646875 13.09820312 1 14 C0.01 14.495 0.01 14.495 -1 15 C-1.02703381 13.06257659 -1.04641125 11.12504521 -1.0625 9.1875 C-1.07410156 8.10855469 -1.08570313 7.02960938 -1.09765625 5.91796875 C-1 3 -1 3 0 0 Z " fill="#858EE8" transform="translate(213,186)"/>
<path d="M0 0 C0 3.31544299 -0.67226165 5.98001389 -1.5 9.1875 C-1.7784375 10.27417969 -2.056875 11.36085938 -2.34375 12.48046875 C-2.5603125 13.31191406 -2.776875 14.14335937 -3 15 C-3.33 15 -3.66 15 -4 15 C-4 12.03 -4 9.06 -4 6 C-3.34 6 -2.68 6 -2 6 C-1.855625 5.195625 -1.71125 4.39125 -1.5625 3.5625 C-1 1 -1 1 0 0 Z " fill="#C83CC1" transform="translate(236,250)"/>
<path d="M0 0 C-0.66 3.63 -1.32 7.26 -2 11 C-2.33 11 -2.66 11 -3 11 C-3 8.36 -3 5.72 -3 3 C-3.99 2.67 -4.98 2.34 -6 2 C-3 0 -3 0 0 0 Z " fill="#E42DA7" transform="translate(207,257)"/>
<path d="M0 0 C0.625 1.8125 0.625 1.8125 1 4 C0.01 5.485 0.01 5.485 -1 7 C-1.39387788 9.32387947 -1.73486085 11.65793749 -2 14 C-3.51047521 11.61704813 -4.09191411 10.501733 -3.57421875 7.67578125 C-3.28160156 6.89589844 -2.98898438 6.11601562 -2.6875 5.3125 C-2.40261719 4.52488281 -2.11773437 3.73726562 -1.82421875 2.92578125 C-1 1 -1 1 0 0 Z " fill="#8FB0DB" transform="translate(195,178)"/>
<path d="M0 0 C2.97 0 5.94 0 9 0 C9.33 0.66 9.66 1.32 10 2 C8.329375 2.2165625 8.329375 2.2165625 6.625 2.4375 C3.17857953 2.78372035 3.17857953 2.78372035 1 4 C0.67 2.68 0.34 1.36 0 0 Z " fill="#090A0A" transform="translate(204,321)"/>
<path d="M0 0 C-1 2 -1 2 -2.75 2.6875 C-5.39239823 3.05449975 -7.42672922 2.64331769 -10 2 C-9.67 1.34 -9.34 0.68 -9 0 C-5.44307323 -0.85056945 -3.50729422 -1.16909807 0 0 Z " fill="#060807" transform="translate(322,302)"/>
<path d="M0 0 C6.15234375 0.5859375 6.15234375 0.5859375 8 1 C8.33 1.66 8.66 2.32 9 3 C6.03 3 3.06 3 0 3 C0 2.01 0 1.02 0 0 Z " fill="#070908" transform="translate(339,301)"/>
<path d="M0 0 C0.33 0 0.66 0 1 0 C1 1.65 1 3.3 1 5 C3.64 5 6.28 5 9 5 C9 5.33 9 5.66 9 6 C5.7 6 2.4 6 -1 6 C-1.33 5.01 -1.66 4.02 -2 3 C-1.34 3 -0.68 3 0 3 C0 2.01 0 1.02 0 0 Z " fill="#B341B3" transform="translate(231,266)"/>
<path d="M0 0 C2 1 2 1 3.125 4.0625 C3.41375 5.031875 3.7025 6.00125 4 7 C3.01 7 2.02 7 1 7 C0.67 7.66 0.34 8.32 0 9 C0 6.03 0 3.06 0 0 Z " fill="#DF34AB" transform="translate(185,252)"/>
<path d="M0 0 C1.2065625 0.0309375 1.2065625 0.0309375 2.4375 0.0625 C2.4375 1.0525 2.4375 2.0425 2.4375 3.0625 C0.7875 3.7225 -0.8625 4.3825 -2.5625 5.0625 C-3.125 3.125 -3.125 3.125 -3.5625 1.0625 C-2.5625 0.0625 -2.5625 0.0625 0 0 Z " fill="#73BBF3" transform="translate(204.5625,171.9375)"/>
<path d="M0 0 C1.65 0 3.3 0 5 0 C5 1.32 5 2.64 5 4 C5.66 4.33 6.32 4.66 7 5 C3.74572241 4.43891766 2.12035493 3.54442592 0 1 C0 0.67 0 0.34 0 0 Z " fill="#F521A6" transform="translate(187,266)"/>
<path d="M0 0 C0.66 0 1.32 0 2 0 C2.33 2.31 2.66 4.62 3 7 C2.34 7 1.68 7 1 7 C0.67 7.66 0.34 8.32 0 9 C0.33 6.69 0.66 4.38 1 2 C0.34 1.67 -0.32 1.34 -1 1 C-0.67 0.67 -0.34 0.34 0 0 Z " fill="#AF80D4" transform="translate(189,214)"/>
<path d="M0 0 C0.99 0.495 0.99 0.495 2 1 C2.40729228 3.32156597 2.74438677 5.6568787 3 8 C2.01 8.33 1.02 8.66 0 9 C0 6.03 0 3.06 0 0 Z " fill="#879BDD" transform="translate(237,212)"/>
<path d="M0 0 C0 0.99 0 1.98 0 3 C-2.64 3 -5.28 3 -8 3 C-7.67 2.34 -7.34 1.68 -7 1 C-4.61370553 0.38812962 -2.46459429 0 0 0 Z " fill="#070908" transform="translate(224,301)"/>
<path d="M0 0 C1.485 0.99 1.485 0.99 3 2 C2.67 4.31 2.34 6.62 2 9 C1.67 8.01 1.34 7.02 1 6 C0.34 6 -0.32 6 -1 6 C-0.67 4.02 -0.34 2.04 0 0 Z " fill="#AE5EBA" transform="translate(209,225)"/>
<path d="M0 0 C0.33 0 0.66 0 1 0 C1 5.28 1 10.56 1 16 C0.67 16 0.34 16 0 16 C0 10.72 0 5.44 0 0 Z " fill="#000000" transform="translate(420,316)"/>
<path d="M0 0 C0.33 0 0.66 0 1 0 C1 3.63 1 7.26 1 11 C0.67 11 0.34 11 0 11 C0 7.37 0 3.74 0 0 Z " fill="#000000" transform="translate(383,323)"/>
<path d="M0 0 C1.65 0 3.3 0 5 0 C5 0.33 5 0.66 5 1 C3.35 1 1.7 1 0 1 C0 0.67 0 0.34 0 0 Z " fill="#000000" transform="translate(250,335)"/>
<path d="M0 0 C1.65 0 3.3 0 5 0 C5 0.33 5 0.66 5 1 C3.35 1 1.7 1 0 1 C0 0.67 0 0.34 0 0 Z " fill="#000000" transform="translate(234,335)"/>
<path d="M0 0 C0.99 0.495 0.99 0.495 2 1 C2 1.66 2 2.32 2 3 C1.34 3 0.68 3 0 3 C0 2.01 0 1.02 0 0 Z " fill="#000000" transform="translate(260,329)"/>
<path d="" fill="#000000" transform="translate(0,0)"/>
<path d="" fill="#000000" transform="translate(0,0)"/>
<path d="M0 0 C2 1 2 1 2 1 Z " fill="#000000" transform="translate(266,335)"/>
<path d="M0 0 C2 1 2 1 2 1 Z " fill="#000000" transform="translate(116,335)"/>
<path d="" fill="#000000" transform="translate(0,0)"/>
<path d="" fill="#000000" transform="translate(0,0)"/>
<path d="" fill="#000000" transform="translate(0,0)"/>
<path d="" fill="#000000" transform="translate(0,0)"/>
<path d="" fill="#000000" transform="translate(0,0)"/>
<path d="" fill="#000000" transform="translate(0,0)"/>
<path d="" fill="#000000" transform="translate(0,0)"/>
<path d="" fill="#000000" transform="translate(0,0)"/>
<path d="" fill="#000000" transform="translate(0,0)"/>
<path d="" fill="#000000" transform="translate(0,0)"/>
<path d="" fill="#000000" transform="translate(0,0)"/>
<path d="" fill="#000000" transform="translate(0,0)"/>
<path d="" fill="#000000" transform="translate(0,0)"/>
<path d="" fill="#000000" transform="translate(0,0)"/>
<path d="" fill="#000000" transform="translate(0,0)"/>
<path d="" fill="#000000" transform="translate(0,0)"/>
<path d="" fill="#000000" transform="translate(0,0)"/>
<path d="" fill="#000000" transform="translate(0,0)"/>
<path d="" fill="#000000" transform="translate(0,0)"/>
<path d="" fill="#000000" transform="translate(0,0)"/>
<path d="" fill="#000000" transform="translate(0,0)"/>
</svg>
