<?xml version="1.0" encoding="UTF-8"?>
<svg version="1.1" xmlns="http://www.w3.org/2000/svg" width="500" height="500">
<path d="M0 0 C165 0 330 0 500 0 C500 165 500 330 500 500 C335 500 170 500 0 500 C0 335 0 170 0 0 Z " fill="#F0F2F2" transform="translate(0,0)"/>
<path d="M0 0 C2.32816478 5.61698009 4.32864987 11.15027455 6 17 C6.54775303 18.40168597 7.11230897 19.79684827 7.6875 21.1875 C9.84922312 26.48535931 11.77963342 31.85680473 13.6875 37.25 C13.9971167 38.11391357 14.3067334 38.97782715 14.62573242 39.86791992 C16.15983614 44.23603614 17.43371505 48.37911478 18 53 C18.66 53 19.32 53 20 53 C19.979375 51.741875 19.95875 50.48375 19.9375 49.1875 C19.89113917 46.35948913 20.08307039 44.75078884 21 42 C21.66 42 22.32 42 23 42 C23.37898438 41.12214844 23.37898438 41.12214844 23.765625 40.2265625 C26.46270139 35.36158293 31.18479179 31.81862331 36.1875 29.5625 C41.20588235 28.55882353 41.20588235 28.55882353 44 29 C47.29236085 31.81667884 49.14476358 34.77235345 51.09375 38.61328125 C51.92712891 40.2384668 51.92712891 40.2384668 52.77734375 41.89648438 C53.34582031 43.02376953 53.91429687 44.15105469 54.5 45.3125 C55.63416636 47.53839793 56.76955154 49.76367532 57.90625 51.98828125 C58.70289063 53.55376709 58.70289063 53.55376709 59.515625 55.15087891 C60.75585435 57.53138491 62.0454097 59.85537878 63.40625 62.16796875 C65 65 65 65 65 67 C65.66 67 66.32 67 67 67 C66.99097656 66.41992188 66.98195313 65.83984375 66.97265625 65.2421875 C67.14743861 60.63705221 67.63557851 57.68528696 71.0625 54.4375 C73.73307336 52.46884325 75.80717196 51.57016636 79.125 51.375 C83.37918396 52.0611587 85.03159997 52.94429409 88 56 C91.86032598 61.79048897 89.93912374 69.47159595 89.1875 76.125 C89.11756836 76.79362061 89.04763672 77.46224121 88.97558594 78.15112305 C88.38073218 82.96031424 87.23573683 86.74506259 85 91 C83.515 91.495 83.515 91.495 82 92 C81.896875 92.598125 81.79375 93.19625 81.6875 93.8125 C80.55895368 97.40332919 78.24016211 98.26419887 75 100 C66.2944836 102.8164906 66.2944836 102.8164906 62 101 C60.24829102 98.45898438 60.24829102 98.45898438 58.50390625 95.09375 C58.18848373 94.49502075 57.87306122 93.8962915 57.54808044 93.27941895 C56.54002528 91.35934948 55.55097423 89.43021095 54.5625 87.5 C53.90165978 86.23110905 53.2395628 84.96287178 52.57617188 83.6953125 C51.60786681 81.84386187 50.64086692 79.99183237 49.67959595 78.13671875 C47.21031526 73.37229473 44.64823826 68.66702208 42 64 C41.89977539 64.72590332 41.79955078 65.45180664 41.69628906 66.19970703 C41.23002697 69.51059081 40.74025799 72.81758788 40.25 76.125 C40.09273438 77.26710938 39.93546875 78.40921875 39.7734375 79.5859375 C38.49036401 88.07396213 36.62889435 93.25495823 30 99 C29.34 99 28.68 99 28 99 C28 99.66 28 100.32 28 101 C23.35150485 103.3992233 19.08913926 103.19957409 14 103 C10.82628601 94.66371127 7.69231238 86.33686037 4.95703125 77.84375 C3.98356039 74.95115088 2.91001093 72.10370035 1.83500671 69.24768066 C0.44820892 65.51468243 -0.86879943 61.75748261 -2.1875 58 C-2.46013672 57.22527344 -2.73277344 56.45054687 -3.01367188 55.65234375 C-3.67651082 53.76848571 -4.33836086 51.88427976 -5 50 C-5.20363159 51.89890991 -5.20363159 51.89890991 -5.41137695 53.83618164 C-5.92029396 58.55439802 -6.44372029 63.27091281 -6.97143555 67.98706055 C-7.19737405 70.02438861 -7.41943047 72.06215123 -7.63745117 74.1003418 C-7.95239997 77.03818996 -8.28150196 79.97416699 -8.61328125 82.91015625 C-8.70716629 83.81459976 -8.80105133 84.71904327 -8.89778137 85.65089417 C-9.59746654 91.67813425 -10.54656043 97.2836919 -14.75 101.9375 C-18.02277472 103.48297695 -20.41805221 103.37054632 -24 103 C-28.76793775 101.2578689 -30.83353034 99.56351703 -33 95 C-33.18847656 92.11914062 -33.18847656 92.11914062 -32.890625 88.65625 C-32.83577942 87.98638062 -32.78093384 87.31651123 -32.72442627 86.62634277 C-32.50539827 84.08172662 -32.25340178 81.54142595 -32 79 C-31.89469971 77.89914063 -31.78939941 76.79828125 -31.6809082 75.6640625 C-30.98118661 68.38734743 -30.23356729 61.11743568 -29.43889618 53.85055542 C-29.0513862 50.30613317 -28.67205399 46.76129497 -28.31298828 43.21386719 C-27.96038054 39.73089074 -27.58766332 36.25061012 -27.20072174 32.77128601 C-26.98987866 30.83187468 -26.7987186 28.89035533 -26.60809326 26.94885254 C-25.78982225 19.82305071 -24.54218589 14.63219935 -20 9 C-19.41476563 8.26007813 -18.82953125 7.52015625 -18.2265625 6.7578125 C-12.79521461 1.22048709 -7.82018355 -0.38147237 0 0 Z " fill="#AF70CE" transform="translate(217,169)"/>
<path d="M0 0 C0.66 1.98 1.32 3.96 2 6 C1.34 6.33 0.68 6.66 0 7 C-0.55036427 9.28741512 -0.55036427 9.28741512 -0.82202148 12.10107422 C-0.95233261 13.19507538 -1.08264374 14.28907654 -1.21690369 15.41622925 C-1.35028641 16.61692047 -1.48366913 17.81761169 -1.62109375 19.0546875 C-1.76652115 20.29880402 -1.91194855 21.54292053 -2.06178284 22.82473755 C-2.45032265 26.16414305 -2.83074146 29.50427841 -3.20739746 32.84503174 C-3.5799685 36.13185935 -3.96342805 39.41741403 -4.34570312 42.703125 C-6.14295794 58.20491428 -6.14295794 58.20491428 -7.78564453 73.72363281 C-7.91229996 74.95083038 -8.03895538 76.17802795 -8.16944885 77.44241333 C-8.40613557 79.74994832 -8.63389291 82.05842405 -8.85093689 84.3678894 C-9.52670304 90.88778784 -10.19071663 96.88972198 -14.75 101.9375 C-18.02277472 103.48297695 -20.41805221 103.37054632 -24 103 C-28.76793775 101.2578689 -30.83353034 99.56351703 -33 95 C-33.18847656 92.11914062 -33.18847656 92.11914062 -32.890625 88.65625 C-32.83577942 87.98638062 -32.78093384 87.31651123 -32.72442627 86.62634277 C-32.50539827 84.08172662 -32.25340178 81.54142595 -32 79 C-31.89469971 77.89914063 -31.78939941 76.79828125 -31.6809082 75.6640625 C-30.98118661 68.38734743 -30.23356729 61.11743568 -29.43889618 53.85055542 C-29.0513862 50.30613317 -28.67205399 46.76129497 -28.31298828 43.21386719 C-27.96038054 39.73089074 -27.58766332 36.25061012 -27.20072174 32.77128601 C-26.98987866 30.83187468 -26.7987186 28.89035533 -26.60809326 26.94885254 C-25.78982225 19.82305071 -24.54218589 14.63219935 -20 9 C-19.41476563 8.26007813 -18.82953125 7.52015625 -18.2265625 6.7578125 C-12.79521461 1.22048709 -7.82018355 -0.38147237 0 0 Z " fill="#B070CE" transform="translate(217,169)"/>
<path d="M0 0 C0.99 0.33 1.98 0.66 3 1 C3.80859375 2.93359375 3.80859375 2.93359375 4.4375 5.4375 C5.37209302 8.8547555 6.38128808 12.10756432 7.75 15.375 C9.89273333 20.5823403 11.76331777 25.87487113 13.625 31.1875 C13.92631836 32.04327637 14.22763672 32.89905273 14.53808594 33.78076172 C15.11504314 35.43541323 15.68268138 37.09334824 16.24023438 38.75463867 C16.87823067 40.64013093 17.56268534 42.50981407 18.2578125 44.375 C19.33305724 49.62672166 18.77143375 54.5068311 18.25 59.8125 C18.15074219 60.91166748 18.05148438 62.01083496 17.94921875 63.14331055 C17.647023 66.43040652 17.32525605 69.71511597 17 73 C16.91169922 73.94230469 16.82339844 74.88460937 16.73242188 75.85546875 C16.49915907 78.34238084 16.25336805 80.82756416 16 83.3125 C15.89413574 84.40365112 15.89413574 84.40365112 15.78613281 85.5168457 C15.39670182 89.05871207 14.88590728 91.94325862 13 95 C10.4921875 87.89453125 7.984375 80.7890625 5.4765625 73.68359375 C5.10966309 72.64525391 5.10966309 72.64525391 4.73535156 71.5859375 C4.24307525 70.18952024 3.75285672 68.79237594 3.26464844 67.39453125 C1.98685407 63.74465221 0.67128668 60.11565021 -0.7109375 56.50390625 C-0.989375 55.76011719 -1.2678125 55.01632813 -1.5546875 54.25 C-2.080503 52.84782533 -2.61851606 51.45012874 -3.171875 50.05859375 C-6.86887577 40.08066695 -4.63783051 29.49046351 -3.34594727 19.20141602 C-3.05929095 16.91186907 -2.78393397 14.62115069 -2.50976562 12.33007812 C-2.3313873 10.87491917 -2.15237478 9.41983779 -1.97265625 7.96484375 C-1.89032242 7.27954086 -1.80798859 6.59423798 -1.72315979 5.88816833 C-1.11543282 1.11543282 -1.11543282 1.11543282 0 0 Z " fill="#4444C1" transform="translate(217,175)"/>
<path d="M0 0 C3.09244792 0.03255208 6.18489583 0.06510417 9.27734375 0.09765625 C11.91734375 6.03765625 14.55734375 11.97765625 17.27734375 18.09765625 C18.39109375 15.87015625 18.39109375 15.87015625 19.52734375 13.59765625 C21.77734375 9.09765625 24.02734375 4.59765625 26.27734375 0.09765625 C30.23734375 0.09765625 34.19734375 0.09765625 38.27734375 0.09765625 C38.27734375 10.32765625 38.27734375 20.55765625 38.27734375 31.09765625 C35.30734375 31.09765625 32.33734375 31.09765625 29.27734375 31.09765625 C27.01028308 28.83059558 27.53325151 22.98575814 27.27734375 20.09765625 C25.62734375 23.72765625 23.97734375 27.35765625 22.27734375 31.09765625 C19.30734375 31.09765625 16.33734375 31.09765625 13.27734375 31.09765625 C12.46235813 29.49475095 11.65044448 27.89028347 10.83984375 26.28515625 C10.38738281 25.39183594 9.93492187 24.49851562 9.46875 23.578125 C8.27734375 21.09765625 8.27734375 21.09765625 7.27734375 18.09765625 C6.94734375 22.38765625 6.61734375 26.67765625 6.27734375 31.09765625 C-0.65625 31.1953125 -0.65625 31.1953125 -2.72265625 31.09765625 C-4.57979682 29.24051568 -3.85314306 26.17258576 -3.85546875 23.69140625 C-3.85675781 22.39074219 -3.85804688 21.09007812 -3.859375 19.75 C-3.85728027 19.06921387 -3.85518555 18.38842773 -3.85302734 17.68701172 C-3.84767865 15.6063711 -3.85297305 13.52594636 -3.859375 11.4453125 C-3.85808594 10.14464844 -3.85679687 8.84398437 -3.85546875 7.50390625 C-3.85434082 6.30056641 -3.85321289 5.09722656 -3.85205078 3.85742188 C-3.67737575 0.13190013 -3.67737575 0.13190013 0 0 Z " fill="#080808" transform="translate(234.72265625,301.90234375)"/>
<path d="M0 0 C3.27981751 2.06771104 4.84746007 3.77119011 7 7 C7.39107813 12.76840236 6.83542292 18.38955983 6.1875 24.125 C6.08260254 25.12793091 6.08260254 25.12793091 5.97558594 26.15112305 C5.38073218 30.96031424 4.23573683 34.74506259 2 39 C0.515 39.495 0.515 39.495 -1 40 C-1.103125 40.598125 -1.20625 41.19625 -1.3125 41.8125 C-2.44104632 45.40332919 -4.75983789 46.26419887 -8 48 C-15.66986063 50.44337979 -15.66986063 50.44337979 -20 49 C-20.30869978 41.7112551 -19.48363655 34.79570869 -18.4453125 27.5859375 C-17.91633941 23.32631209 -17.84969532 19.2836834 -18 15 C-17.34 15 -16.68 15 -16 15 C-16.00902344 14.41992188 -16.01804687 13.83984375 -16.02734375 13.2421875 C-15.85256139 8.63705221 -15.36442149 5.68528696 -11.9375 2.4375 C-7.81521342 -0.60131084 -5.01751485 -0.80927659 0 0 Z " fill="#B071CE" transform="translate(300,221)"/>
<path d="M0 0 C2.78713808 2.46267919 4.26930687 5.11600034 5.9609375 8.41015625 C6.51523437 9.48330078 7.06953125 10.55644531 7.640625 11.66210938 C8.21296875 12.78423828 8.7853125 13.90636719 9.375 15.0625 C10.22191406 16.70508789 10.22191406 16.70508789 11.0859375 18.38085938 C12.20372154 20.5530346 13.31410279 22.72903651 14.41674805 24.90893555 C15.42564808 26.87866312 16.46102928 28.8352065 17.53051758 30.77270508 C20.35623826 35.99305374 21.60101668 39.48777935 20.9375 45.5625 C20.87312744 46.22507813 20.80875488 46.88765625 20.74243164 47.5703125 C20.52539707 49.71807654 20.26455126 51.8576072 20 54 C19.82130336 55.60268552 19.64424872 57.20555489 19.46875 58.80859375 C19.01408008 62.87719936 18.51768282 66.93895422 18 71 C13.66609223 66.20989141 11.03107838 60.58467541 8.125 54.875 C7.10782844 52.89268613 6.08960119 50.9109136 5.0703125 48.9296875 C4.57184814 47.93662598 4.07338379 46.94356445 3.55981445 45.92041016 C2.0585605 42.99401753 2.0585605 42.99401753 0.24291992 40.37255859 C-5.08829237 32.15921494 -4.20094745 25.1010549 -2.9375 15.875 C-2.77091662 14.44046895 -2.60748253 13.00556854 -2.44726562 11.5703125 C-1.24480599 1.24480599 -1.24480599 1.24480599 0 0 Z " fill="#4544C2" transform="translate(262,199)"/>
<path d="M0 0 C6.44713812 2.3283782 9.66560615 10.33021897 12.85546875 16.03125 C12.94634766 14.53271484 12.94634766 14.53271484 13.0390625 13.00390625 C13.12285156 11.71355469 13.20664062 10.42320312 13.29296875 9.09375 C13.37417969 7.80597656 13.45539063 6.51820313 13.5390625 5.19140625 C13.85546875 2.03125 13.85546875 2.03125 14.85546875 1.03125 C16.35284999 0.9333443 17.85489767 0.90150136 19.35546875 0.90625 C20.17015625 0.90367187 20.98484375 0.90109375 21.82421875 0.8984375 C23.85546875 1.03125 23.85546875 1.03125 24.85546875 2.03125 C24.95550164 4.16478174 24.98627923 6.30162542 24.98828125 8.4375 C24.98957031 9.73816406 24.99085938 11.03882813 24.9921875 12.37890625 C24.99009277 13.05969238 24.98799805 13.74047852 24.98583984 14.44189453 C24.98049115 16.52253515 24.98578555 18.60295989 24.9921875 20.68359375 C24.99089844 21.98425781 24.98960937 23.28492188 24.98828125 24.625 C24.98715332 25.82833984 24.98602539 27.03167969 24.98486328 28.27148438 C24.85546875 31.03125 24.85546875 31.03125 23.85546875 32.03125 C20.37934606 32.73712932 17.31876108 32.83047131 13.85546875 32.03125 C10.85433181 29.43628197 8.9212298 26.39196574 6.85546875 23.03125 C5.53546875 21.05125 4.21546875 19.07125 2.85546875 17.03125 C2.52546875 21.98125 2.19546875 26.93125 1.85546875 32.03125 C-1.44453125 32.03125 -4.74453125 32.03125 -8.14453125 32.03125 C-8.16918747 27.77710377 -8.18737024 23.52299502 -8.19946289 19.26879883 C-8.20450226 17.82054927 -8.21133378 16.37230483 -8.2199707 14.92407227 C-8.23205372 12.84650412 -8.23776336 10.76900303 -8.2421875 8.69140625 C-8.24742432 7.43980713 -8.25266113 6.18820801 -8.25805664 4.89868164 C-8.05375281 -0.2616377 -4.57197874 0.05277898 0 0 Z " fill="#0B0B0B" transform="translate(394.14453125,300.96875)"/>
<path d="M0 0 C1.20970459 0.00523682 2.41940918 0.01047363 3.66577148 0.01586914 C4.97094727 0.0190918 6.27612305 0.02231445 7.62084961 0.02563477 C9.00952213 0.03399138 10.39819401 0.04245634 11.78686523 0.05102539 C13.17944179 0.05603873 14.57202005 0.06060193 15.96459961 0.06469727 C19.38456394 0.07653105 22.80444367 0.09301659 26.22436523 0.11352539 C26.22436523 2.75352539 26.22436523 5.39352539 26.22436523 8.11352539 C19.62436523 8.11352539 13.02436523 8.11352539 6.22436523 8.11352539 C6.22436523 9.43352539 6.22436523 10.75352539 6.22436523 12.11352539 C11.50436523 12.11352539 16.78436523 12.11352539 22.22436523 12.11352539 C22.22436523 14.42352539 22.22436523 16.73352539 22.22436523 19.11352539 C21.22436523 20.11352539 21.22436523 20.11352539 18.06420898 20.21118164 C16.77643555 20.19958008 15.48866211 20.18797852 14.16186523 20.17602539 C12.87151367 20.16700195 11.58116211 20.15797852 10.25170898 20.14868164 C9.25268555 20.13708008 8.25366211 20.12547852 7.22436523 20.11352539 C7.22436523 21.10352539 7.22436523 22.09352539 7.22436523 23.11352539 C13.49436523 23.11352539 19.76436523 23.11352539 26.22436523 23.11352539 C26.22436523 25.75352539 26.22436523 28.39352539 26.22436523 31.11352539 C22.11263964 31.13818285 18.00094246 31.15636498 13.88916016 31.16845703 C12.48941295 31.17349619 11.08967103 31.18032756 9.68994141 31.18896484 C7.68190747 31.20104859 5.67383566 31.20622346 3.66577148 31.21118164 C2.45606689 31.21641846 1.2463623 31.22165527 0 31.22705078 C-2.77563477 31.11352539 -2.77563477 31.11352539 -3.77563477 30.11352539 C-3.87566766 27.97999365 -3.90644524 25.84314997 -3.90844727 23.70727539 C-3.90973633 22.40661133 -3.91102539 21.10594727 -3.91235352 19.76586914 C-3.91025879 19.08508301 -3.90816406 18.40429688 -3.90600586 17.70288086 C-3.90065717 15.62224024 -3.90595157 13.5418155 -3.91235352 11.46118164 C-3.91106445 10.16051758 -3.90977539 8.85985352 -3.90844727 7.51977539 C-3.90731934 6.31643555 -3.90619141 5.1130957 -3.9050293 3.87329102 C-3.73066021 0.15429447 -3.72280989 0.15226551 0 0 Z " fill="#101010" transform="translate(354.775634765625,301.886474609375)"/>
<path d="M0 0 C3.96 0 7.92 0 12 0 C15.47603377 6.78250491 18.78780165 13.59586262 21.875 20.5625 C22.1851001 21.25279297 22.4952002 21.94308594 22.81469727 22.65429688 C24.10690324 25.60415911 25 27.743534 25 31 C21.7 31 18.4 31 15 31 C14.34 29.35 13.68 27.7 13 26 C8.38 26 3.76 26 -1 26 C-1.99 28.475 -1.99 28.475 -3 31 C-5.97 31 -8.94 31 -12 31 C-11.59882243 23.83023675 -8.48416439 17.9715256 -5.4375 11.5625 C-4.65729492 9.8928418 -4.65729492 9.8928418 -3.86132812 8.18945312 C-2.58247497 5.45575785 -1.29234706 2.72734199 0 0 Z " fill="#090909" transform="translate(289,302)"/>
<path d="M0 0 C3.96 0 7.92 0 12 0 C15.47603377 6.78250491 18.78780165 13.59586262 21.875 20.5625 C22.1851001 21.25279297 22.4952002 21.94308594 22.81469727 22.65429688 C24.10690324 25.60415911 25 27.743534 25 31 C21.7 31 18.4 31 15 31 C14.34 29.35 13.68 27.7 13 26 C8.38 26 3.76 26 -1 26 C-1.99 28.475 -1.99 28.475 -3 31 C-5.97 31 -8.94 31 -12 31 C-11.59882243 23.83023675 -8.48416439 17.9715256 -5.4375 11.5625 C-4.65729492 9.8928418 -4.65729492 9.8928418 -3.86132812 8.18945312 C-2.58247497 5.45575785 -1.29234706 2.72734199 0 0 Z " fill="#090909" transform="translate(95,302)"/>
<path d="M0 0 C3.46679688 0.04882812 3.46679688 0.04882812 6.93359375 0.09765625 C6.93359375 4.05765625 6.93359375 8.01765625 6.93359375 12.09765625 C10.89359375 12.09765625 14.85359375 12.09765625 18.93359375 12.09765625 C18.91296875 10.30328125 18.89234375 8.50890625 18.87109375 6.66015625 C18.84978155 4.80599503 18.86132873 2.95053127 18.93359375 1.09765625 C19.26359375 0.76765625 19.59359375 0.43765625 19.93359375 0.09765625 C22.90359375 0.09765625 25.87359375 0.09765625 28.93359375 0.09765625 C28.93359375 10.32765625 28.93359375 20.55765625 28.93359375 31.09765625 C25.96359375 31.09765625 22.99359375 31.09765625 19.93359375 31.09765625 C19.93359375 27.46765625 19.93359375 23.83765625 19.93359375 20.09765625 C15.64359375 20.09765625 11.35359375 20.09765625 6.93359375 20.09765625 C6.93359375 23.72765625 6.93359375 27.35765625 6.93359375 31.09765625 C-0 31.1953125 -0 31.1953125 -2.06640625 31.09765625 C-3.92354682 29.24051568 -3.19689306 26.17258576 -3.19921875 23.69140625 C-3.20050781 22.39074219 -3.20179688 21.09007812 -3.203125 19.75 C-3.20103027 19.06921387 -3.19893555 18.38842773 -3.19677734 17.68701172 C-3.19142865 15.6063711 -3.19672305 13.52594636 -3.203125 11.4453125 C-3.20183594 10.14464844 -3.20054687 8.84398437 -3.19921875 7.50390625 C-3.19809082 6.30056641 -3.19696289 5.09722656 -3.19580078 3.85742188 C-3.02163678 0.14279947 -3.02163678 0.14279947 0 0 Z " fill="#090909" transform="translate(196.06640625,301.90234375)"/>
<path d="M0 0 C0.8146875 0.00257813 1.629375 0.00515625 2.46875 0.0078125 C3.2834375 0.00523437 4.098125 0.00265625 4.9375 0 C6.96875 0.1328125 6.96875 0.1328125 7.96875 1.1328125 C8.11356287 2.68096655 8.19577845 4.23509604 8.25 5.7890625 C8.28738281 6.72878906 8.32476562 7.66851562 8.36328125 8.63671875 C8.43359375 10.63411458 8.50390625 12.63151042 8.57421875 14.62890625 C8.61160156 15.56863281 8.64898437 16.50835937 8.6875 17.4765625 C8.71779297 18.34474609 8.74808594 19.21292969 8.77929688 20.10742188 C8.75096501 22.1277538 8.75096501 22.1277538 9.96875 23.1328125 C13.42696402 23.38285214 13.42696402 23.38285214 16.96875 23.1328125 C19.40721521 20.69434729 19.24536603 19.94955225 19.34765625 16.59765625 C19.38181641 15.70626953 19.41597656 14.81488281 19.45117188 13.89648438 C19.47759766 12.96384766 19.50402344 12.03121094 19.53125 11.0703125 C19.59093611 9.22512268 19.65452463 7.38005353 19.72265625 5.53515625 C19.74658447 4.71523193 19.7705127 3.89530762 19.79516602 3.05053711 C19.96875 1.1328125 19.96875 1.1328125 20.96875 0.1328125 C22.48803038 0.06101286 24.01042482 0.04889243 25.53125 0.0703125 C26.35753906 0.07933594 27.18382812 0.08835937 28.03515625 0.09765625 C28.67324219 0.10925781 29.31132812 0.12085938 29.96875 0.1328125 C30.05636663 3.67432143 30.10934739 7.21554883 30.15625 10.7578125 C30.18138672 11.75683594 30.20652344 12.75585938 30.23242188 13.78515625 C30.28710985 19.29041262 30.25356557 23.46373524 26.96875 28.1328125 C22.66637948 31.77327986 17.64058979 32.6859517 12.13671875 32.3828125 C7.13455394 31.80598629 3.48613832 31.09605757 0.09375 27.2578125 C-2.63428492 23.24599644 -3.15704926 20.40061514 -3.1640625 15.62109375 C-3.16535156 14.78126953 -3.16664062 13.94144531 -3.16796875 13.07617188 C-3.16410156 12.20798828 -3.16023438 11.33980469 -3.15625 10.4453125 C-3.16011719 9.56552734 -3.16398437 8.68574219 -3.16796875 7.77929688 C-3.16667969 6.94333984 -3.16539063 6.10738281 -3.1640625 5.24609375 C-3.16293457 4.48079346 -3.16180664 3.71549316 -3.16064453 2.92700195 C-2.97339761 0.33062907 -2.59036989 0.16937034 0 0 Z " fill="#0D0D0D" transform="translate(125.03125,301.8671875)"/>
<path d="M0 0 C1.43489809 -0.13536774 2.87347107 -0.23217143 4.3125 -0.3125 C5.11300781 -0.37050781 5.91351563 -0.42851562 6.73828125 -0.48828125 C9 0 9 0 10.625 2.13671875 C12.05248169 5.10928715 13.4174531 8.08146419 14.6875 11.125 C15.34298828 12.67574219 15.34298828 12.67574219 16.01171875 14.2578125 C17 17 17 17 17 20 C17.66 20 18.32 20 19 20 C19.17015625 19.38253906 19.3403125 18.76507813 19.515625 18.12890625 C23.78251599 3.21748401 23.78251599 3.21748401 27 0 C28.51928038 -0.07179964 30.04167482 -0.08392007 31.5625 -0.0625 C32.38878906 -0.05347656 33.21507812 -0.04445313 34.06640625 -0.03515625 C34.70449219 -0.02355469 35.34257812 -0.01195312 36 0 C35.53059432 6.90417518 32.80942844 12.61621775 30 18.875 C29.5359375 19.93203125 29.071875 20.9890625 28.59375 22.078125 C25.16316244 29.83683756 25.16316244 29.83683756 24 31 C21.98035801 31.07244053 19.95832876 31.08377188 17.9375 31.0625 C16.83277344 31.05347656 15.72804688 31.04445313 14.58984375 31.03515625 C13.73519531 31.02355469 12.88054687 31.01195312 12 31 C10.28145512 27.23230364 8.57278025 23.46030375 6.87304688 19.68408203 C6.29369984 18.40064043 5.71169099 17.11839687 5.12695312 15.83740234 C4.2858995 13.99366405 3.45457885 12.14579948 2.625 10.296875 C2.12226563 9.18666992 1.61953125 8.07646484 1.1015625 6.93261719 C0 4 0 4 0 0 Z " fill="#070707" transform="translate(312,302)"/>
<path d="M0 0 C9.9 0 19.8 0 30 0 C30 2.64 30 5.28 30 8 C26.7 8 23.4 8 20 8 C20 15.59 20 23.18 20 31 C16.7 31 13.4 31 10 31 C10 23.41 10 15.82 10 8 C6.7 8 3.4 8 0 8 C0 5.36 0 2.72 0 0 Z " fill="#070707" transform="translate(159,302)"/>
<path d="M0 0 C0 0.33 0 0.66 0 1 C-0.85722656 1.13535156 -1.71445313 1.27070313 -2.59765625 1.41015625 C-10.40425936 2.87994511 -15.15672347 4.57165115 -20 11 C-20 8 -20 8 -17.875 5.5 C-12.00949978 0.39956503 -7.52285565 -0.45137134 0 0 Z " fill="#9BC8F3" transform="translate(217,168)"/>
<path d="M0 0 C0.66 0 1.32 0 2 0 C2.66 2.31 3.32 4.62 4 7 C2.02 7 0.04 7 -2 7 C-1.34 4.69 -0.68 2.38 0 0 Z " fill="#D4D6D6" transform="translate(294,313)"/>
<path d="M0 0 C0.66 0 1.32 0 2 0 C2.66 2.31 3.32 4.62 4 7 C2.02 7 0.04 7 -2 7 C-1.34 4.69 -0.68 2.38 0 0 Z " fill="#D4D6D6" transform="translate(100,313)"/>
<path d="M0 0 C2.97 0 5.94 0 9 0 C9.33 0.66 9.66 1.32 10 2 C8.72125 2.144375 7.4425 2.28875 6.125 2.4375 C3.74307106 2.70642746 2.15547309 2.92226346 0 4 C0 2.68 0 1.36 0 0 Z " fill="#363636" transform="translate(312,302)"/>
</svg>
